<?xml version="1.0" encoding="UTF-8" standalone="no"?>
<svg
   xmlns:dc="http://purl.org/dc/elements/1.1/"
   xmlns:cc="http://creativecommons.org/ns#"
   xmlns:rdf="http://www.w3.org/1999/02/22-rdf-syntax-ns#"
   xmlns:svg="http://www.w3.org/2000/svg"
   xmlns="http://www.w3.org/2000/svg"
   xmlns:sodipodi="http://sodipodi.sourceforge.net/DTD/sodipodi-0.dtd"
   xmlns:inkscape="http://www.inkscape.org/namespaces/inkscape"
   width="65px"
   viewBox="0 0 65 65"
   version="1.1"
   height="65px"
   id="svg14"
   sodipodi:docname="arch.svg"
   inkscape:version="0.92.1 r15371">
  <metadata
     id="metadata18">
    <rdf:RDF>
      <cc:Work
         rdf:about="">
        <dc:format>image/svg+xml</dc:format>
        <dc:type
           rdf:resource="http://purl.org/dc/dcmitype/StillImage" />
      </cc:Work>
    </rdf:RDF>
  </metadata>
  <sodipodi:namedview
     pagecolor="#ffffff"
     bordercolor="#666666"
     borderopacity="1"
     objecttolerance="10"
     gridtolerance="10"
     guidetolerance="10"
     inkscape:pageopacity="0"
     inkscape:pageshadow="2"
     inkscape:window-width="1600"
     inkscape:window-height="877"
     id="namedview16"
     showgrid="false"
     inkscape:zoom="3.6307692"
     inkscape:cx="32.5"
     inkscape:cy="32.5"
     inkscape:window-x="1592"
     inkscape:window-y="-8"
     inkscape:window-maximized="1"
     inkscape:current-layer="svg14" />
  <defs
     id="defs7">
    <linearGradient
       id="lg"
       y1="9.90843"
       x2="25.431995"
       x1="34.76569"
       y2="28.426884"
       gradientTransform="matrix(0.78354369,0,0,0.90217727,6.3750308,1.6859519)"
       gradientUnits="userSpaceOnUse">
      <stop
         stop-color="#fff"
         stop-opacity="0"
         offset="0"
         id="stop2" />
      <stop
         stop-color="#fff"
         stop-opacity=".27451"
         offset="1"
         id="stop4" />
    </linearGradient>
  </defs>
  <path
     d="m 33.492407,1.862438 c -2.395356,5.8721946 -3.849889,9.718468 -6.515973,15.41637 1.634459,1.732829 3.6439,3.743952 6.903568,6.023281 C 30.37567,21.860168 27.987041,20.416565 26.201244,18.914107 22.788556,26.035435 17.437891,36.17597 6.5877458,55.67176 15.11316,50.749888 21.723299,47.713025 27.882785,46.554443 27.618783,45.418562 27.478375,44.18431 27.488464,42.902135 l 0.0067,-0.269047 c 0.135364,-5.463327 2.97801,-9.664658 6.345296,-9.379637 3.366446,0.285021 5.987969,4.947094 5.852605,10.411263 -0.02606,1.029103 -0.145454,2.01785 -0.348079,2.935971 6.093065,1.192213 12.640146,4.214783 21.052056,9.071075 -1.65884,-3.053679 -3.144482,-5.805522 -4.558658,-8.427885 -2.227202,-1.726103 -4.54941,-3.971801 -9.287994,-6.40415 3.257146,0.846656 5.591125,1.825313 7.408871,2.916633 C 39.58379,16.990424 38.421845,13.431442 33.492407,1.862438 v -7.56e-5 z"
     id="path9"
     inkscape:connector-curvature="0"
     style="fill:#1793d1;stroke-width:0.84077066" />
  <path
     id="path2522"
     d="M 48.637209,33.844588 C 36.974038,18.015399 34.270961,5.2567049 33.585733,2.2105928 39.807435,16.560025 39.764556,16.736587 48.637209,33.844588 Z"
     inkscape:connector-curvature="0"
     style="fill:#ffffff;fill-opacity:0.16567999;stroke-width:0.84077066" />
  <path
     d="m 33.597503,2.0726391 c -0.302677,0.7436449 -0.588539,1.4686582 -0.867675,2.1544748 -0.30604,0.7521535 -0.603673,1.4768137 -0.892898,2.180791 -0.289226,0.7039772 -0.582654,1.3712128 -0.866835,2.0493785 -0.285021,0.6780815 -0.549864,1.348512 -0.840771,2.0231466 -0.290906,0.674298 -0.610399,1.356162 -0.919803,2.048957 -0.309403,0.693636 -0.632259,1.393998 -0.971931,2.128832 -0.339671,0.733993 -0.696158,1.514228 -1.077868,2.312119 -0.05129,0.107619 -0.104255,0.232053 -0.157224,0.341353 1.630255,1.726943 3.640537,3.722092 6.88339,5.990491 -3.503492,-1.441922 -5.885395,-2.885525 -7.672033,-4.387982 -0.09248,0.190014 -0.166472,0.357327 -0.26232,0.551545 -0.353124,0.732312 -0.732311,1.457056 -1.129996,2.259992 -0.09501,0.188333 -0.164791,0.359009 -0.26232,0.551545 -0.421226,0.844134 -0.862631,1.717695 -1.340189,2.653473 -0.09501,0.184969 -0.191695,0.337989 -0.289225,0.525481 -0.288384,0.560794 -1.210709,2.328935 -2.154054,4.125662 -0.550705,1.049282 -0.982861,1.908549 -1.60335,3.073857 -0.175721,0.334627 -0.537252,1.004721 -0.630578,1.182124 6.831262,-3.844844 14.201457,-9.430084 27.588208,-4.650303 -0.670094,-1.269563 -1.313284,-2.454209 -1.891734,-3.573275 -0.57845,-1.119906 -1.103091,-2.161621 -1.602509,-3.15289 C 42.13637,21.470143 41.674787,20.535206 41.242631,19.649874 40.811316,18.764543 40.411109,17.928817 40.034443,17.127562 39.657778,16.326308 39.290361,15.555321 38.957416,14.815443 38.62363,14.076405 38.313386,13.36091 38.011549,12.661388 37.709713,11.961027 37.427214,11.267391 37.143874,10.585526 36.861375,9.9032407 36.578876,9.2490371 36.303103,8.5623797 36.183714,8.2635698 36.081981,7.9454222 35.96175,7.6427447 35.215146,5.889822 34.482835,4.1522854 33.597503,2.0726391 v 1.68e-5 z"
     id="path12"
     style="fill:url(#lg);stroke-width:0.84077066"
     inkscape:connector-curvature="0" />
</svg>
