<svg version="1.1" viewBox="0 0 110 110" xmlns="http://www.w3.org/2000/svg">
 <g transform="matrix(.89752 0 0 .89752 7.0276 4.7635)" fill="none" fill-rule="evenodd">
  <g transform="translate(4)" fill="#47848f">
   <path d="m36.224 24.291c-14.178-2.5823-25.394.12187-29.869 7.8723-3.3397 5.7846-2.3858 13.449 2.3082 21.636.41205.71868 1.3287.96726 2.0474.55522.71868-.41205.96726-1.3287.55522-2.0474-4.2138-7.3497-5.0331-13.932-2.3128-18.644 3.6943-6.3988 13.661-8.8018 26.733-6.4209.81502.14844 1.5961-.39192 1.7445-1.2069s-.39192-1.5961-1.2069-1.7445zm-20.191 39.452c5.7291 6.2959 13.172 12.201 21.659 17.101 20.555 11.868 42.441 15.04 53.237 7.6789.68446-.4667.86098-1.3999.39428-2.0844-.4667-.68446-1.3999-.86098-2.0844-.39428-9.6268 6.5641-30.381 3.5556-50.047-7.7983-8.2257-4.7491-15.425-10.461-20.94-16.522-.55756-.61272-1.5063-.65743-2.119-.09987s-.65743 1.5063-.09987 2.119zm84.927 19.723c0-3.8647-3.133-6.9977-6.9977-6.9977-3.8647 0-6.9977 3.133-6.9977 6.9977 0 3.8647 3.133 6.9977 6.9977 6.9977 3.8647 0 6.9977-3.133 6.9977-6.9977zm-3 0c0 2.2079-1.7898 3.9977-3.9977 3.9977-2.2079 0-3.9977-1.7898-3.9977-3.9977s1.7898-3.9977 3.9977-3.9977c2.2079 0 3.9977 1.7898 3.9977 3.9977z"/>
   <path d="m87.501 61.975c9.2836-10.967 12.527-22.003 8.0613-29.738-3.2864-5.6922-10.229-8.6954-19.45-8.8154-.82836-.01077-1.5086.65201-1.5194 1.4804-.01077.82836.65201 1.5086 1.4804 1.5194 8.2642.10748 14.216 2.682 16.891 7.3156 3.6864 6.385.80505 16.19-7.753 26.3-.53524.6323-.45656 1.5788.17575 2.114.6323.53524 1.5788.45656 2.114-.17575zm-23.875-37.2c-8.3884 1.7973-17.316 5.311-25.891 10.261-21.22 12.251-35.064 30.319-33.14 43.433.1203.81965.88227 1.3866 1.7019 1.2663.81965-.1203 1.3866-.88227 1.2663-1.7019-1.7022-11.598 11.398-28.694 31.671-40.399 8.3092-4.7973 16.945-8.1959 25.019-9.9259.81004-.17356 1.326-.97092 1.1525-1.781-.17356-.81004-.97092-1.326-1.781-1.1525z"/>
   <path d="m29.238 87.553c4.8539 13.554 12.799 21.903 21.742 21.903 6.5236 0 12.555-4.4439 17.255-12.263.42682-.71001.19726-1.6316-.51275-2.0584-.71001-.42682-1.6316-.19726-2.0584.51275-4.2093 7.0021-9.3756 10.808-14.684 10.808-7.3832 0-14.443-7.4188-18.918-19.915-.27931-.77992-1.138-1.1858-1.9179-.90645-.77992.27931-1.1858 1.138-.90645 1.9179zm44.372-2.6498c2.5111-8.0245 3.8597-17.281 3.8597-26.926 0-24.073-8.4267-44.828-20.441-50.163-.75714-.33619-1.6435.00505-1.9797.76219-.33619.75714.0051 1.6435.7622 1.9797 10.675 4.7398 18.658 24.403 18.658 47.421 0 9.3483-1.3046 18.303-3.7228 26.03-.24741.79062.19295 1.6321.98357 1.8795.79062.24741 1.6321-.19295 1.8795-.98358z"/>
   <path d="m100.96 83.466c0-3.8647-3.133-6.9977-6.9977-6.9977-3.8647 0-6.9977 3.133-6.9977 6.9977 0 3.8647 3.133 6.9977 6.9977 6.9977 3.8647 0 6.9977-3.133 6.9977-6.9977zm-3 0c0 2.2079-1.7898 3.9977-3.9977 3.9977-2.2079 0-3.9977-1.7898-3.9977-3.9977s1.7898-3.9977 3.9977-3.9977c2.2079 0 3.9977 1.7898 3.9977 3.9977z"/>
   <path d="m7.8976 90.464c3.8647 0 6.9977-3.133 6.9977-6.9977 0-3.8647-3.133-6.9977-6.9977-6.9977-3.8647 0-6.9977 3.133-6.9977 6.9977 0 3.8647 3.133 6.9977 6.9977 6.9977zm0-3c-2.2079 0-3.9977-1.7898-3.9977-3.9977s1.7898-3.9977 3.9977-3.9977c2.2079 0 3.9977 1.7898 3.9977 3.9977s-1.7898 3.9977-3.9977 3.9977z"/>
   <path d="m50.98 14.995c3.8647 0 6.9977-3.133 6.9977-6.9977 0-3.8647-3.133-6.9977-6.9977-6.9977s-6.9977 3.133-6.9977 6.9977c0 3.8647 3.133 6.9977 6.9977 6.9977zm0-3c-2.2079 0-3.9977-1.7898-3.9977-3.9977 0-2.2079 1.7898-3.9977 3.9977-3.9977s3.9977 1.7898 3.9977 3.9977c0 2.2079-1.7898 3.9977-3.9977 3.9977z"/>
   <path d="m52.041 62.892c-2.7145.58652-5.3888-1.1386-5.9765-3.8531-.58537-2.7145 1.1386-5.3888 3.8531-5.9765 2.7145-.58652 5.3888 1.1386 5.9765 3.8531.58652 2.7145-1.1386 5.3888-3.8531 5.9765z"/>
  </g>
 </g>
</svg>
