<svg width="64" height="64" enable-background="new 0 0 765 359" version="1.1" viewBox="0 0 32 32" xmlns="http://www.w3.org/2000/svg">
 <g transform="matrix(1.1586 0 0 1.1586 -12.67 -19.426)" stroke-width=".13666">
  <path d="m25.035 17.185c.19132.35531.45097.9156.66962 1.2572.15032.23232.31431.4373.50563.62862.56029.56029 1.0933 1.1479 1.5716 1.7765 1.1342 1.4896 1.8995 3.1431 2.4462 4.9333.32798 1.0933.50563 2.2138.5193 3.3481.05466 3.3891-1.1069 6.2999-3.4574 8.7187-.38264.38264-.79261.73795-1.2299 1.0523-.23232 0-.34164-.17765-.4373-.34164-.17765-.30064-.28698-.64229-.34164-.98393-.08199-.40997-.13666-.81994-.10932-1.2436v-.19132c-.01367-.041-.21865-18.859-.13666-18.954z" fill="#599636"/>
  <path d="m25.035 17.144c-.02733-.05466-.05466-.01367-.08199.01366.01367.27331-.08199.5193-.23232.75161-.16399.23232-.38264.40997-.60129.60129-1.2162 1.0523-2.1728 2.3232-2.9381 3.7444-1.0113 1.9132-1.5442 3.963-1.6945 6.1222-.06833.77894.24598 3.5257.49196 4.3184.66962 2.1045 1.8722 3.8674 3.4301 5.3979.38264.36897.79261.71062 1.2162 1.0386.12299 0 .13666-.10933.16399-.19132.05466-.17765.09566-.35531.12299-.53296.12299-.68328.19132-1.3666.27331-2.0498 0-.08199-.10932-19.146-.15032-19.214z" fill="#6cac48"/>
  <path d="m25.705 39.734c.02733-.31431.17765-.57396.34164-.83361-.16399-.06833-.28698-.20498-.38264-.35531-.08199-.13666-.15032-.30064-.20498-.45097-.19132-.57396-.23232-1.1752-.28698-1.7629v-.17765-.17765c-.06833.05466-.08199.5193-.08199.58762-.041.62862-.12299 1.2436-.24598 1.8449-.041.24598-.06833.49196-.21865.71062 0 .02733 0 .05466.01367.09566.24598.72428.31431 1.4622.35531 2.2138v.27331c0 .32798-.01367.25965.25965.36897.10932.041.23232.05466.34164.13666.08199 0 .09566-.06833.09566-.12299-.01367-.15032-.041-.30064-.041-.45097 0-.42364-.01367-.8336 0-1.2572-.01367-.21865.02733-.4373.05466-.64229z" fill="#c2bfbf"/>
 </g>
</svg>
