<svg width="36.662mm" height="43.451mm" version="1.1" viewBox="0 0 36.661739 43.451004" xmlns="http://www.w3.org/2000/svg">
 <g transform="translate(-56.132 -89.907)">
  <path d="m71.714 93.406q2.7496-1.5875 5.4993 0l12.832 7.4083q2.7496 1.5875 2.7496 4.7625v14.817q0 3.175-2.7496 4.7625l-12.832 7.4083q-2.7496 1.5875-5.4993 0l-12.832-7.4083q-2.7496-1.5875-2.7496-4.7625v-14.817q0-3.175 2.7496-4.7625z" fill="#d5dddd" stroke-width=".26458"/>
  <path d="m71.714 90.701q2.7496-1.5875 5.4993 0l12.832 7.4083q2.7496 1.5875 2.7496 4.7625v14.817q0 3.175-2.7496 4.7625l-12.832 7.4083q-2.7496 1.5875-5.4993 0l-12.832-7.4083q-2.7496-1.5875-2.7496-4.7625v-14.817q0-3.175 2.7496-4.7625z" fill="#f8f8f8" stroke-width=".26458"/>
  <path d="m75.952 119.01q-1.1432.66-2.2863 0l-5.3348-3.08q-1.1432-.66-1.1432-1.98v-6.1601q0-1.32 1.1432-1.98l5.3348-3.08q1.1432-.66 2.2863 0l5.3348 3.08q1.1432.65999 1.1432 1.98v6.1601q0 1.32-1.1432 1.98z" fill="#a1edf8" stroke-width=".11"/>
 </g>
</svg>
