<svg version="1.1" viewBox="0 0 67.801 81.077" xmlns="http://www.w3.org/2000/svg">
 <path d="m28.816 7.1904q5.0851-2.9359 10.17 0l23.73 13.701q5.0851 2.9359 5.0851 8.8077v27.402q0 5.8718-5.0851 8.8077l-23.73 13.701q-5.0851 2.9359-10.17 0l-23.73-13.701q-5.0851-2.9359-5.0851-8.8077v-27.402q0-5.8718 5.0851-8.8077z" fill="#e2e2e2" stroke-width=".48931"/>
 <path d="m28.816 1.4679q5.0851-2.9359 10.17 0l23.73 13.701q5.0851 2.9359 5.0851 8.8077v27.402q0 5.8718-5.0851 8.8077l-23.73 13.701q-5.0851 2.9359-10.17 0l-23.73-13.701q-5.0851-2.9359-5.0851-8.8077v-27.402q0-5.8718 5.0851-8.8077z" fill="#f6f6f6" stroke-width=".48931"/>
 <g transform="matrix(.012442 0 0 .012442 9.4982 16.301)">
  <circle cx="1960" cy="1760" r="355" fill="#67daf9"/>
  <g fill="none" stroke="#67daf9" stroke-width="170">
   <ellipse transform="rotate(30)" cx="2575" cy="545" rx="715" ry="1875"/>
   <ellipse transform="rotate(90)" cx="1760" cy="-1960" rx="715" ry="1875"/>
   <ellipse transform="rotate(150)" cx="-815" cy="-2505" rx="715" ry="1875"/>
  </g>
 </g>
</svg>
