<svg width="2222" height="2500" preserveAspectRatio="xMidYMid" version="1.1" viewBox="0 0 256 288" xmlns="http://www.w3.org/2000/svg">
 <path d="m152.2 46.278 52.379 30.243a22.865 22.865 0 0 1 5.1523 -4.0772c10.863-6.2451 24.718-2.5372 31.028 8.3262 6.2451 10.863 2.5372 24.718-8.3262 31.028a22.758 22.758 0 0 1 -6.0494 2.4088v60.507a22.759 22.759 0 0 1 5.9848 2.3928c10.928 6.3098 14.636 20.166 8.3262 31.029-6.2451 10.863-20.166 14.57-31.029 8.3262a22.55 22.55 0 0 1 -5.6146 -4.5581l-52.06 30.057a22.734 22.734 0 0 1 1.1468 7.1555c0 12.489-10.147 22.703-22.702 22.703-12.555 0-22.702-10.149-22.702-22.703 0-2.2317.32058-4.3872.91835-6.4231l-52.364-30.234a22.869 22.869 0 0 1 -5.0815 4.0028c-10.928 6.2442-24.784 2.5363-31.029-8.3262-6.2442-10.863-2.5363-24.719 8.3262-31.029a22.768 22.768 0 0 1 5.9848 -2.3937v-60.506a22.758 22.758 0 0 1 -6.0494 -2.4088c-10.863-6.2442-14.571-20.165-8.3262-31.028 6.2451-10.863 20.165-14.571 31.028-8.3262a22.866 22.866 0 0 1 5.1275 4.0515l52.394-30.251a22.766 22.766 0 0 1 -.92809 -6.4559c0-12.553 10.147-22.702 22.702-22.702 12.555 0 22.702 10.148 22.702 22.702 0 2.2565-.32766 4.4341-.93783 6.4895zm-5.457 9.3181 52.504 30.313a22.67 22.67 0 0 0 2.1582 17.562c3.1961 5.5597 8.4024 9.2455 14.181 10.682v60.583c-.2949.0717-.58802.15055-.87938.23379l-68.573-118.77c.20722-.19837.41091-.40028.61016-.60574zm-31.99.61991-68.572 118.77a22.869 22.869 0 0 0 -.89444 -.2391v-60.589c5.7784-1.4364 10.985-5.1222 14.181-10.682a22.671 22.671 0 0 0 2.1493 -17.596l52.488-30.305c.21166.21874.42774.43394.64825.64382zm22.026 5.3799 68.556 118.74a22.575 22.575 0 0 0 -3.9966 5.0983 22.759 22.759 0 0 0 -2.3928 5.9848h-137.02a22.768 22.768 0 0 0 -2.3946 -5.9848 22.87 22.87 0 0 0 -3.9904 -5.0691l68.57-118.76a22.773 22.773 0 0 0 6.3239 .88912c2.2024 0 4.3305-.31172 6.3434-.89444zm10.445 172.23 52.163-30.117a22.906 22.906 0 0 1 -.41888 -1.4896h-137.07c-.07262.2949-.15143.58714-.23556.8785l52.418 30.265a22.634 22.634 0 0 1 16.356 -6.9447 22.639 22.639 0 0 1 16.789 7.4079z" fill="#e535ab" fill-rule="evenodd" stroke-width=".88558"/>
</svg>
