<svg width="2500" height="2383" preserveAspectRatio="xMidYMid" version="1.1" viewBox="0 0 256 244" xmlns="http://www.w3.org/2000/svg">
 <path d="m174.74 155.73c8.1497-.8437 14.332-7.8693 14.051-16.301-.28037-8.4309-7.3069-15.176-15.738-15.176h-.56161c-8.713.28124-15.457 7.5881-15.176 16.3.28123 4.2159 1.9669 7.8693 4.4963 10.399-9.555 18.83-24.169 32.601-46.089 44.124-14.895 7.8693-30.351 10.68-45.808 8.713-12.647-1.6865-22.483-7.3069-28.667-16.582-8.9925-13.771-9.8354-28.667-2.2473-43.562 5.34-10.68 13.77-18.549 19.11-22.484-1.1241-3.6534-2.8106-9.8362-3.6534-14.332-40.75 29.51-36.534 69.418-24.169 88.247 9.2738 14.053 28.103 22.765 48.9 22.765 5.6203 0 11.241-.56246 16.862-1.9669 35.973-7.0265 63.233-28.386 78.69-60.144zm49.462-34.849c-21.359-25.013-52.834-38.784-88.807-38.784h-4.4963c-2.5294-5.0587-7.8693-8.4318-13.771-8.4318h-.56247c-8.7113.28123-15.456 7.5881-15.175 16.301.28123 8.4309 7.3068 15.176 15.738 15.176h.56159c6.1828-.28124 11.523-4.2159 13.771-9.5559h5.0587c21.359 0 41.593 6.1828 59.861 18.268 14.051 9.2746 24.169 21.36 29.789 35.974 4.7775 11.804 4.4963 23.327-.56246 33.164-7.8685 14.895-21.077 23.045-38.501 23.045-11.242 0-21.921-3.373-27.542-5.9024-3.091 2.8106-8.7122 7.3068-12.647 10.118 12.085 5.6203 24.451 8.7122 36.254 8.7122 26.979 0 46.933-14.896 54.521-29.791 8.1497-16.301 7.5872-44.405-13.49-68.294zm-142.77 39.626c.28123 8.4318 7.3069 15.176 15.738 15.176h.56246c8.7121-.28038 15.457-7.5881 15.175-16.3-.28037-8.4318-7.3068-15.176-15.738-15.176h-.5616c-.56246 0-1.4062 0-1.9669.28037-11.523-19.111-16.3-39.907-14.614-62.391 1.1232-16.863 6.7444-31.477 16.581-43.562 8.1497-10.399 23.887-15.457 34.567-15.738 29.789-.56246 42.435 36.535 43.279 51.431 3.6534.84283 9.8362 2.8106 14.052 4.2159-3.3731-45.529-31.476-69.136-58.455-69.136-25.294 0-48.619 18.268-57.894 45.248-12.927 35.974-4.4963 70.542 11.242 97.803-1.4044 1.9669-2.2481 5.0587-1.9669 8.1506z" fill="#764abc" stroke-width=".86267"/>
</svg>
