<svg width="410" height="410.6" enable-background="new 0 0 547.8 410.6" xmlns:cc="http://creativecommons.org/ns#" xmlns:dc="http://purl.org/dc/elements/1.1/" xmlns:rdf="http://www.w3.org/1999/02/22-rdf-syntax-ns#" space="preserve" version="1.1" viewBox="0 0 410.00001 410.6" xmlns="http://www.w3.org/2000/svg">
 <metadata>
  <rdf:RDF>
   <cc:Work rdf:about="">
    <dc:format>image/svg+xml</dc:format>
    <dc:type rdf:resource="http://purl.org/dc/dcmitype/StillImage"/>
    <dc:title/>
   </cc:Work>
  </rdf:RDF>
 </metadata>
 <link id="dark-mode" href="" rel="stylesheet" type="text/css"/>
 <style id="dark-mode-custom-style" type="text/css"/>
 <path d="m351.63 207.52c-13.706.0718-25.619 3.3728-35.593 8.2525-3.6598-7.2478-7.3196-13.706-7.9654-18.442-.71761-5.5256-1.5787-8.8983-.71761-15.5.86113-6.602 4.7362-16.003 4.6644-16.72-.0718-.7176-.86113-4.0904-8.7548-4.1621-7.8937-.0718-14.711 1.507-15.5 3.588s-2.2963 6.8173-3.301 11.697c-1.3635 7.1761-15.787 32.795-24.04 46.214-2.6552-5.2385-4.9515-9.8312-5.4538-13.491-.7176-5.5256-1.5787-8.8983-.7176-15.5.86113-6.602 4.7362-16.003 4.6644-16.72-.0718-.71761-.86113-4.0904-8.7548-4.1621-7.8937-.0718-14.711 1.507-15.5 3.588s-1.6505 6.9608-3.301 11.697c-1.6505 4.7362-20.811 47.506-25.834 58.557-2.5834 5.6691-4.808 10.19-6.3867 13.276 0 0-.0718.21528-.28705.57408-1.3634 2.6552-2.1528 4.0904-2.1528 4.0904v.0718c-1.0764 1.9375-2.2246 3.7316-2.7987 3.7316-.43057 0-1.2199-5.1668.14352-12.199 2.8704-14.854 9.6877-37.961 9.6159-38.751 0-.43057 1.2917-4.4492-4.4492-6.5302-5.5973-2.0811-7.6066 1.3635-8.109 1.3635-.50233 0-.86113 1.2199-.86113 1.2199s6.2432-25.977-11.912-25.977c-11.338 0-26.982 12.415-34.732 23.609-4.8797 2.6551-15.285 8.3242-26.408 14.424-4.2339 2.3681-8.6113 4.7362-12.702 6.9608-.28704-.28704-.57408-.64585-.86112-.93289-21.959-23.466-62.575-40.042-60.853-71.545.64585-11.482 4.5927-41.621 78.004-78.219 60.422-29.781 108.5-21.528 116.83-3.2292 11.912 26.121-25.762 74.631-88.194 81.664-23.825 2.6551-36.311-6.5302-39.468-9.9747-3.301-3.588-3.8033-3.8033-5.0232-3.0857-2.0093 1.0764-.71761 4.3056 0 6.1714 1.8658 4.8797 9.5442 13.491 22.533 17.725 11.482 3.7316 39.397 5.8126 73.196-7.2478 37.818-14.639 67.383-55.327 58.7-89.414-8.683-34.589-66.092-45.999-120.41-26.695-32.292 11.482-67.312 29.565-92.5 53.103-29.924 27.987-34.66 52.314-32.723 62.504 6.9608 36.167 56.834 59.705 76.784 77.143-1.0046.57408-1.9375 1.0764-2.7269 1.507-9.9747 4.9515-48.008 24.829-57.48 45.855-10.764 23.825 1.7223 40.904 9.9747 43.2 25.619 7.1043 51.955-5.6691 66.092-26.767 14.137-21.098 12.415-48.51 5.8844-61.068-.0718-.14352-.14352-.28704-.28704-.43056 2.5834-1.507 5.2385-3.0857 7.8219-4.5927 5.095-3.014 10.118-5.8126 14.424-8.109-2.4399 6.6737-4.2339 14.639-5.095 26.121-1.0764 13.491 4.4492 31.001 11.697 37.89 3.2292 3.014 7.0326 3.0857 9.4724 3.0857 8.4678 0 12.271-7.0325 16.505-15.357 5.1668-10.19 9.8312-22.031 9.8312-22.031s-5.8126 32.005 9.9747 32.005c5.7408 0 11.553-7.4631 14.137-11.266v.0718s.14352-.21528.43057-.7176c.57408-.93289.93288-1.507.93288-1.507v-.14352c2.2964-4.0186 7.4631-13.132 15.142-28.274 9.903-19.519 19.447-43.918 19.447-43.918s.86113 5.9561 3.8033 15.859c1.7223 5.8126 5.3103 12.199 8.1807 18.371-2.2963 3.2292-3.7316 5.0232-3.7316 5.0232l.0718.0718c-1.8658 2.4399-3.8751 5.095-6.0997 7.6784-7.8219 9.3289-17.151 20.021-18.442 23.107-1.507 3.6598-1.1482 6.3149 1.7223 8.4678 2.0811 1.5787 5.8126 1.794 9.6159 1.5787 7.0326-.50233 11.984-2.2246 14.424-3.301 3.8033-1.3635 8.2525-3.4445 12.415-6.5302 7.6784-5.6691 12.343-13.778 11.912-24.47-.21528-5.8844-2.1528-11.769-4.5209-17.294.71761-1.0046 1.3634-2.0093 2.0811-3.014 12.128-17.725 21.528-37.172 21.528-37.172s.86113 5.9561 3.8033 15.859c1.4352 5.0232 4.3774 10.477 6.9608 15.787-11.41 9.2571-18.442 20.021-20.954 27.054-4.5209 13.06-1.0046 18.945 5.6691 20.308 3.014.64585 7.3196-.78936 10.477-2.1528 4.0186-1.2917 8.7548-3.5163 13.276-6.8173 7.6784-5.6691 15.07-13.563 14.639-24.255-.21528-4.8797-1.507-9.6877-3.301-14.352 9.6877-4.0186 22.174-6.2432 38.105-4.3774 34.158 4.0186 40.904 25.332 39.612 34.302-1.2917 8.9701-8.4678 13.85-10.836 15.357-2.3681 1.507-3.1575 2.0093-2.9422 3.0857.28704 1.5787 1.4352 1.507 3.4445 1.2199 2.7987-.50232 17.94-7.2478 18.586-23.753 1.0764-21.098-19.017-44.133-54.538-43.918zm-263.51 88.84c-11.338 12.343-27.126 17.007-33.943 13.06-7.3196-4.2339-4.4492-22.461 9.4724-35.522 8.4678-7.9654 19.375-15.357 26.623-19.878 1.6505-1.0046 4.0904-2.4399 7.0325-4.2339.50232-.28704.78937-.43056.78937-.43056.57409-.35881 1.1482-.71761 1.7223-1.0764 5.095 18.658.21528 35.091-11.697 48.08zm82.525-56.117c-3.9468 9.6159-12.199 34.23-17.223 32.866-4.3056-1.1482-6.9608-19.806-.86113-38.248 3.0857-9.2571 9.6159-20.308 13.419-24.614 6.1714-6.889 12.989-9.1854 14.639-6.3867 2.0811 3.6598-7.5349 30.355-9.9747 36.383zm68.101 32.579c-1.6505.86113-3.2292 1.4352-3.9468 1.0046-.50233-.28704.71761-1.4352.71761-1.4352s8.5395-9.1854 11.912-13.347c1.9375-2.4399 4.2339-5.3103 6.6738-8.5395v.93289c0 10.979-10.621 18.371-15.357 21.385zm52.529-11.984c-1.2199-.86113-1.0046-3.7316 3.0857-12.702 1.5787-3.5163 5.3103-9.4006 11.697-15.07.7176 2.2963 1.2199 4.5209 1.1482 6.602-.0718 13.85-9.9747 19.017-15.931 21.169z" fill="#cd6799" stroke-width=".71761"/>
</svg>
